<mxfile host="app.diagrams.net" modified="2024-03-10T02:10:58.503Z" agent="Mozilla/5.0 (Windows NT 10.0; Win64; x64) AppleWebKit/537.36 (KHTML, like Gecko) Chrome/122.0.0.0 Safari/537.36 Edg/122.0.0.0" etag="ne1-kzS4rYqFQWCjxw2C" version="24.0.4" type="device">
  <diagram name="Página-1" id="rr0d_VTbX17FR5oJgQA5">
    <mxGraphModel dx="1242" dy="569" grid="1" gridSize="10" guides="1" tooltips="1" connect="1" arrows="1" fold="1" page="1" pageScale="1" pageWidth="827" pageHeight="1169" math="0" shadow="0">
      <root>
        <mxCell id="0" />
        <mxCell id="1" parent="0" />
        <mxCell id="I8NUrRIxlG4ZnErw7Vx_-3" value="" style="edgeStyle=orthogonalEdgeStyle;rounded=0;orthogonalLoop=1;jettySize=auto;html=1;" edge="1" parent="1" source="I8NUrRIxlG4ZnErw7Vx_-1" target="I8NUrRIxlG4ZnErw7Vx_-2">
          <mxGeometry relative="1" as="geometry" />
        </mxCell>
        <mxCell id="I8NUrRIxlG4ZnErw7Vx_-1" value="INICIO" style="ellipse;whiteSpace=wrap;html=1;fillColor=#99CCFF;" vertex="1" parent="1">
          <mxGeometry x="354" y="20" width="120" height="80" as="geometry" />
        </mxCell>
        <mxCell id="I8NUrRIxlG4ZnErw7Vx_-5" value="" style="edgeStyle=orthogonalEdgeStyle;rounded=0;orthogonalLoop=1;jettySize=auto;html=1;" edge="1" parent="1" source="I8NUrRIxlG4ZnErw7Vx_-2" target="I8NUrRIxlG4ZnErw7Vx_-4">
          <mxGeometry relative="1" as="geometry" />
        </mxCell>
        <mxCell id="I8NUrRIxlG4ZnErw7Vx_-2" value="Solicitar un numero como texto" style="shape=parallelogram;perimeter=parallelogramPerimeter;whiteSpace=wrap;html=1;fixedSize=1;fillColor=#80FF00;" vertex="1" parent="1">
          <mxGeometry x="332" y="190" width="164" height="60" as="geometry" />
        </mxCell>
        <mxCell id="I8NUrRIxlG4ZnErw7Vx_-7" value="" style="edgeStyle=orthogonalEdgeStyle;rounded=0;orthogonalLoop=1;jettySize=auto;html=1;" edge="1" parent="1" source="I8NUrRIxlG4ZnErw7Vx_-4" target="I8NUrRIxlG4ZnErw7Vx_-6">
          <mxGeometry relative="1" as="geometry" />
        </mxCell>
        <mxCell id="I8NUrRIxlG4ZnErw7Vx_-9" value="" style="edgeStyle=orthogonalEdgeStyle;rounded=0;orthogonalLoop=1;jettySize=auto;html=1;" edge="1" parent="1" source="I8NUrRIxlG4ZnErw7Vx_-4" target="I8NUrRIxlG4ZnErw7Vx_-8">
          <mxGeometry relative="1" as="geometry" />
        </mxCell>
        <mxCell id="I8NUrRIxlG4ZnErw7Vx_-4" value="¿Se puede convertir a entero?" style="rhombus;whiteSpace=wrap;html=1;fillColor=#474D0A;" vertex="1" parent="1">
          <mxGeometry x="349" y="340" width="130" height="110" as="geometry" />
        </mxCell>
        <mxCell id="I8NUrRIxlG4ZnErw7Vx_-11" value="" style="edgeStyle=orthogonalEdgeStyle;rounded=0;orthogonalLoop=1;jettySize=auto;html=1;" edge="1" parent="1" source="I8NUrRIxlG4ZnErw7Vx_-6" target="I8NUrRIxlG4ZnErw7Vx_-10">
          <mxGeometry relative="1" as="geometry" />
        </mxCell>
        <mxCell id="I8NUrRIxlG4ZnErw7Vx_-6" value="Si" style="shape=parallelogram;perimeter=parallelogramPerimeter;whiteSpace=wrap;html=1;fixedSize=1;fillColor=#80FF00;" vertex="1" parent="1">
          <mxGeometry x="90" y="365" width="120" height="60" as="geometry" />
        </mxCell>
        <mxCell id="I8NUrRIxlG4ZnErw7Vx_-13" value="" style="edgeStyle=orthogonalEdgeStyle;rounded=0;orthogonalLoop=1;jettySize=auto;html=1;" edge="1" parent="1" source="I8NUrRIxlG4ZnErw7Vx_-8" target="I8NUrRIxlG4ZnErw7Vx_-12">
          <mxGeometry relative="1" as="geometry" />
        </mxCell>
        <mxCell id="I8NUrRIxlG4ZnErw7Vx_-8" value="No" style="shape=parallelogram;perimeter=parallelogramPerimeter;whiteSpace=wrap;html=1;fixedSize=1;fillColor=#80FF00;" vertex="1" parent="1">
          <mxGeometry x="564" y="365" width="120" height="60" as="geometry" />
        </mxCell>
        <mxCell id="I8NUrRIxlG4ZnErw7Vx_-16" style="edgeStyle=orthogonalEdgeStyle;rounded=0;orthogonalLoop=1;jettySize=auto;html=1;entryX=0;entryY=0.5;entryDx=0;entryDy=0;" edge="1" parent="1" source="I8NUrRIxlG4ZnErw7Vx_-10" target="I8NUrRIxlG4ZnErw7Vx_-14">
          <mxGeometry relative="1" as="geometry" />
        </mxCell>
        <mxCell id="I8NUrRIxlG4ZnErw7Vx_-10" value="Convertir el texto a entero y mostrar numero" style="shape=parallelogram;perimeter=parallelogramPerimeter;whiteSpace=wrap;html=1;fixedSize=1;fillColor=#80FF00;" vertex="1" parent="1">
          <mxGeometry x="63" y="510" width="174" height="60" as="geometry" />
        </mxCell>
        <mxCell id="I8NUrRIxlG4ZnErw7Vx_-15" style="edgeStyle=orthogonalEdgeStyle;rounded=0;orthogonalLoop=1;jettySize=auto;html=1;entryX=1;entryY=0.5;entryDx=0;entryDy=0;" edge="1" parent="1" source="I8NUrRIxlG4ZnErw7Vx_-12" target="I8NUrRIxlG4ZnErw7Vx_-14">
          <mxGeometry relative="1" as="geometry" />
        </mxCell>
        <mxCell id="I8NUrRIxlG4ZnErw7Vx_-12" value="&quot;Mensaje de error&quot; Mostar en pantalla: No se ingreso numero" style="shape=parallelogram;perimeter=parallelogramPerimeter;whiteSpace=wrap;html=1;fixedSize=1;fillColor=#80FF00;" vertex="1" parent="1">
          <mxGeometry x="526" y="510" width="196" height="60" as="geometry" />
        </mxCell>
        <mxCell id="I8NUrRIxlG4ZnErw7Vx_-14" value="FIN" style="ellipse;whiteSpace=wrap;html=1;fillColor=#99CCFF;" vertex="1" parent="1">
          <mxGeometry x="340" y="500" width="120" height="80" as="geometry" />
        </mxCell>
      </root>
    </mxGraphModel>
  </diagram>
</mxfile>
